<?xml version="1.0" standalone="no"?>
<!DOCTYPE svg PUBLIC "-//W3C//DTD SVG 20010904//EN"
 "http://www.w3.org/TR/2001/REC-SVG-20010904/DTD/svg10.dtd">
<svg version="1.0" xmlns="http://www.w3.org/2000/svg"
 width="188.000000pt" height="268.000000pt" viewBox="0 0 188.000000 268.000000"
 preserveAspectRatio="xMidYMid meet">

<g transform="translate(0.000000,268.000000) scale(0.100000,-0.100000)"
fill="#000000" stroke="none">
<path d="M1434 2574 c-55 -41 -103 -99 -159 -194 -21 -36 -39 -66 -40 -67 0
-1 -11 0 -23 4 -27 7 -28 19 -2 26 11 3 20 10 20 16 0 16 -60 14 -110 -4 -52
-19 -61 -13 -30 20 13 14 20 28 16 32 -13 13 -91 -36 -161 -102 -38 -36 -70
-65 -72 -65 -1 0 -26 21 -55 47 -70 62 -136 103 -167 103 -15 0 -40 -9 -57
-19 -37 -22 -49 -62 -60 -191 -5 -63 -14 -99 -34 -140 -48 -96 -76 -220 -50
-220 6 0 10 -12 10 -26 0 -41 59 -90 126 -105 73 -16 89 -39 80 -111 -9 -64
11 -137 39 -148 11 -4 43 -12 70 -18 28 -5 60 -13 73 -17 18 -6 22 -4 22 15 0
22 1 22 18 7 10 -9 51 -24 91 -33 82 -19 131 -52 131 -90 0 -19 -5 -24 -25
-24 -32 0 -49 -39 -41 -96 l5 -40 -62 -36 c-34 -20 -78 -44 -97 -53 -165 -81
-372 -332 -392 -477 -10 -76 -15 -84 -40 -61 -80 72 -77 246 7 451 41 99 45
117 27 117 -17 0 -124 -125 -183 -215 -27 -41 -59 -85 -71 -97 -24 -25 -42
-112 -43 -210 0 -55 3 -65 33 -100 18 -21 47 -57 65 -80 17 -23 38 -42 44 -43
15 0 43 -52 43 -80 0 -11 18 -38 40 -60 22 -22 40 -44 40 -49 0 -21 47 -36
135 -43 110 -9 89 -9 215 -4 76 3 114 0 139 -10 39 -16 77 -18 86 -4 3 6 31
10 62 10 39 0 66 6 90 21 29 18 49 21 141 20 102 -1 175 13 191 35 3 5 18 15
33 21 30 14 35 27 41 126 l5 68 -28 -6 c-31 -7 -39 1 -55 55 -10 33 -14 35
-55 38 -53 3 -70 21 -70 73 0 38 21 120 45 174 53 122 56 205 11 339 -25 74
-26 81 -11 112 24 50 19 72 -20 95 -39 23 -39 35 -4 116 34 80 150 170 283
219 44 16 51 23 75 76 15 32 30 56 34 52 11 -12 8 25 -10 114 -14 71 -14 85
-2 93 11 6 6 16 -21 45 -19 20 -54 49 -78 66 l-43 29 32 37 c37 42 82 134 77
159 -2 9 -35 43 -74 74 -63 52 -74 66 -103 136 -55 132 -79 147 -147 97z m72
-16 c3 -13 13 -31 21 -40 8 -9 15 -33 16 -52 1 -20 6 -36 11 -36 11 0 49 -74
50 -97 1 -7 9 -20 19 -30 17 -17 19 -17 30 -2 11 15 16 15 40 2 15 -7 25 -18
22 -23 -4 -6 -1 -10 4 -10 17 0 13 -21 -16 -78 -54 -108 -180 -186 -237 -148
-14 9 -31 34 -37 56 -11 37 -29 55 -29 29 0 -5 -4 -8 -9 -5 -5 3 -11 34 -15
68 -5 54 -2 94 16 223 6 39 -17 27 -40 -21 -59 -123 -66 -148 -46 -168 8 -8
14 -21 14 -28 0 -8 7 -37 15 -65 13 -43 20 -53 44 -58 15 -3 37 -18 48 -33 11
-15 37 -33 57 -40 34 -13 40 -12 81 12 56 33 70 33 125 -4 27 -18 38 -30 28
-30 -26 0 -22 -12 12 -45 27 -26 29 -31 16 -41 -14 -10 -13 -17 9 -60 21 -42
23 -50 10 -64 -8 -9 -12 -25 -8 -38 8 -33 -27 -102 -52 -102 -48 0 -196 -91
-271 -166 -41 -41 -52 -60 -57 -95 -4 -24 -13 -71 -20 -104 -11 -49 -18 -61
-38 -66 -75 -21 -146 6 -163 62 -6 19 -23 57 -38 85 -26 50 -27 51 -77 52 -37
1 -68 10 -117 36 -74 40 -94 44 -94 20 0 -14 -2 -15 -17 -3 -9 8 -24 13 -34
11 -18 -3 -35 30 -25 47 3 5 -3 11 -14 14 -18 4 -20 0 -21 -36 l0 -42 -15 40
c-8 22 -13 62 -12 90 3 47 5 50 36 56 17 4 42 19 53 33 12 15 39 38 60 52 53
33 70 69 62 133 -3 28 -12 56 -19 62 -8 6 -14 20 -14 31 0 11 -18 63 -40 115
-22 53 -40 102 -40 109 0 21 -54 104 -67 104 -17 0 -18 2 21 -92 18 -46 41
-107 51 -135 9 -29 20 -55 25 -58 5 -3 7 -12 4 -20 -4 -8 6 -35 20 -59 35 -59
34 -105 -1 -138 -40 -36 -77 -47 -170 -53 -90 -6 -105 -1 -160 49 -25 23 -31
35 -27 53 4 13 1 30 -6 38 -16 20 -5 86 27 155 l26 55 9 -35 c6 -19 15 -46 21
-60 l11 -25 4 26 c1 14 -2 45 -7 69 -13 59 -8 249 7 277 17 31 41 41 83 36 28
-4 55 -22 118 -79 45 -41 85 -74 90 -74 4 0 16 10 27 21 10 12 40 39 67 61 36
30 51 38 60 29 13 -10 47 -8 67 4 5 3 7 0 5 -8 -5 -10 8 -13 57 -14 35 -1 75
-6 90 -11 20 -8 29 -8 38 3 8 10 7 16 -6 23 -16 9 -13 17 29 83 45 72 79 111
142 163 37 32 52 32 61 4z m-380 -1320 c5 -8 0 -9 -14 -6 -46 12 -30 -12 25
-39 49 -24 70 -28 138 -28 61 0 88 4 108 18 30 19 35 37 12 37 -8 0 -15 5 -15
10 0 6 9 10 20 10 27 0 27 -53 0 -80 -50 -50 -186 -62 -278 -25 -47 19 -61 41
-54 86 3 22 10 29 28 29 12 0 26 -5 30 -12z m286 -154 c3 -16 16 -63 27 -104
24 -89 26 -109 4 -57 -8 20 -21 37 -29 37 -18 0 -18 -15 1 -76 19 -64 20 -84
1 -58 -14 18 -15 18 -21 -11 -14 -71 -48 -162 -70 -191 -14 -18 -25 -39 -25
-48 0 -32 19 -24 50 22 l31 47 -8 -35 c-15 -64 -9 -183 10 -227 l19 -41 62 5
c75 6 88 -4 92 -80 3 -40 2 -45 -5 -22 -10 39 -29 75 -40 75 -17 0 -20 -30 -6
-56 18 -36 6 -65 -36 -86 -43 -22 -99 -21 -169 0 l-55 18 -6 189 c-5 172 -3
194 14 228 25 52 14 58 -29 16 -27 -26 -34 -39 -29 -57 3 -13 6 -101 6 -197
-1 -212 -8 -239 -70 -250 -22 -4 -44 -4 -49 -1 -5 3 -8 32 -6 65 3 44 1 60
-10 64 -15 6 -26 -30 -26 -92 0 -60 -10 -68 -67 -50 l-48 15 1 50 c0 27 4 64
8 82 6 21 5 32 -2 32 -19 0 -42 -57 -42 -104 0 -37 -3 -44 -16 -39 -12 4 -14
14 -10 36 27 137 71 180 149 149 16 -7 37 -12 47 -12 10 0 21 -4 24 -9 3 -5
15 -11 26 -14 15 -4 20 0 20 16 0 17 -12 27 -50 44 -49 22 -50 23 -50 66 0 65
-21 210 -31 222 -10 10 -31 -13 -24 -26 5 -7 11 -52 21 -151 6 -65 6 -68 -15
-68 -15 0 -25 9 -32 30 -6 17 -17 30 -25 30 -9 0 -14 11 -14 33 0 18 -4 37 -9
43 -5 5 -12 34 -15 64 -7 62 -18 112 -35 153 -11 29 -12 30 -34 21 -13 -5 -13
-11 4 -49 33 -74 40 -262 14 -357 -6 -22 -4 -28 9 -28 20 0 20 1 -4 -59 -13
-34 -18 -67 -16 -105 l3 -56 -33 0 c-43 0 -64 30 -64 92 0 27 -4 48 -9 48 -15
0 -33 -68 -26 -99 6 -28 4 -30 -29 -37 -53 -9 -70 8 -61 66 4 25 7 57 7 72 1
26 3 28 47 26 57 -1 118 15 140 37 15 15 12 16 -34 11 -27 -2 -66 -8 -86 -12
-21 -3 -45 -1 -58 5 -23 13 -52 68 -61 116 -4 24 -10 30 -28 28 -17 -2 -22 2
-22 21 0 13 7 26 15 30 8 3 15 16 15 28 0 13 9 38 21 57 11 18 17 36 14 39 -3
4 -10 0 -15 -8 -8 -13 -10 -13 -10 1 0 23 96 157 152 210 26 25 70 56 98 69
53 25 65 47 28 52 -17 2 9 20 94 64 104 54 119 59 132 46 22 -23 116 -28 153
-8 17 8 48 15 69 14 22 0 55 6 74 15 44 20 53 18 62 -19z m-993 -185 c-39
-121 -41 -128 -43 -233 -2 -81 1 -93 25 -131 14 -23 39 -52 55 -64 25 -20 54
-69 54 -91 0 -14 -109 -22 -143 -11 -71 24 -155 144 -142 204 4 17 7 51 7 75
0 33 4 42 18 42 19 0 30 19 30 51 0 28 26 76 70 129 20 25 49 65 64 88 15 24
29 42 32 40 2 -3 -10 -47 -27 -99z m996 -193 c-4 -19 -14 -41 -22 -48 -14 -11
-15 -8 -8 22 15 71 42 95 30 26z m66 -282 c16 -19 8 -26 -33 -27 -27 -2 -34 2
-36 19 -2 17 2 21 27 22 16 0 35 -6 42 -14z m-908 -169 c-8 -25 -13 -61 -11
-80 3 -29 1 -35 -15 -35 -36 0 -54 18 -55 55 -3 66 25 102 80 104 16 1 16 -2
1 -44z"/>
<path d="M1290 2064 c0 -7 -9 -14 -20 -17 -21 -5 -25 -23 -11 -46 11 -17 36
-9 50 17 7 14 6 24 -4 38 -8 11 -15 14 -15 8z"/>
<path d="M1568 1979 c-26 -15 -22 -29 7 -29 15 0 28 -7 32 -17 4 -10 14 -28
23 -39 23 -30 25 -107 4 -139 -20 -31 -5 -33 23 -2 19 20 20 28 12 86 -5 36
-17 73 -27 84 -12 15 -14 21 -4 24 17 6 15 30 -4 37 -22 9 -46 7 -66 -5z"/>
<path d="M1015 1961 c-9 -28 1 -41 31 -41 22 0 25 4 22 28 -4 34 -43 44 -53
13z"/>
<path d="M1270 1969 c-19 -4 -38 -5 -43 -2 -5 3 -19 1 -30 -5 -26 -12 -56 -22
-60 -20 -7 6 -57 -56 -57 -72 0 -19 70 -60 103 -60 10 0 27 -11 39 -25 23 -27
38 -25 38 6 0 10 4 27 8 37 43 87 52 109 52 124 0 23 -9 26 -50 17z m-65 -49
c-32 -11 -61 -17 -64 -15 -8 8 64 34 94 34 23 0 16 -4 -30 -19z"/>
<path d="M922 1743 c-16 -15 -31 -36 -35 -45 -3 -10 -13 -18 -22 -18 -8 0 -15
-7 -15 -15 0 -22 19 -18 42 8 l20 22 -6 -25 c-4 -14 -9 -35 -12 -47 -4 -14 -2
-23 5 -23 6 0 11 9 11 20 0 11 5 20 10 20 13 0 13 -36 0 -61 -8 -15 -7 -19 5
-19 8 0 15 8 15 19 0 10 3 33 6 50 5 24 3 31 -10 31 -19 0 -19 -1 -5 38 6 17
20 34 30 37 11 4 18 12 16 18 -7 21 -26 18 -55 -10z"/>
<path d="M1270 1750 c-1 -3 -3 -36 -4 -73 -3 -59 -7 -71 -32 -98 -56 -60 -130
-83 -177 -57 -12 7 -28 12 -36 13 -14 0 -25 15 -35 48 -10 32 -29 19 -22 -15
7 -34 34 -71 47 -63 4 3 26 -4 48 -16 40 -21 42 -21 90 -3 56 20 121 77 145
129 18 37 36 44 55 21 14 -17 93 -26 129 -15 15 4 47 14 72 21 25 7 59 25 76
40 17 16 37 28 43 28 14 0 14 17 1 25 -6 3 -27 -7 -47 -24 -21 -17 -46 -31
-56 -31 -10 0 -29 -7 -42 -16 -13 -9 -29 -13 -34 -9 -6 3 -19 2 -28 -4 -13 -6
-24 -5 -38 5 -24 18 -35 18 -35 -1 0 -8 -4 -15 -10 -15 -11 0 -81 68 -97 95
-6 11 -13 18 -13 15z"/>
</g>
</svg>
